# xmcd
#
# Track frame offsets:
#	150
#	16578
#	35786
#	54902
#	73825
#	88885
#	104549
#	123565
#	141303
#	164111
#	183131
#	196979
#	214263
#	231188
#	250039
#	270378
#	286713
#	301608
#	317883
#
# Disc length: 4421 seconds
#
# Revision: 0
# Processed by: cddbd v1.5.2PL0 Copyright (c) Steve Scherf et al.
# Submitted via: EZCDAudioConverter 2.2.2.1
#
DISCID=12114313
DTITLE=Various Artist - 唱遊皇家樂園
DYEAR=2004
DGENRE=Pop
TTITLE0=容祖兒 - 貪慕虛榮
TTITLE1=Twins - 丟架
TTITLE2=Boy'z - 眼紅館
TTITLE3=黃耀明 - 畫出彩虹
TTITLE4=梁洛施 - 戀得更好
TTITLE5=容祖兒 - 世上只有
TTITLE6=Twins - 女人味
TTITLE7=Boy'z - 情陷百老匯
TTITLE8=黃耀明 - 一二三上海灘
TTITLE9=鄭希怡 - 心眼
TTITLE10=吳浩康 - 洗剪吹
TTITLE11=容祖兒 - 借過
TTITLE12=I Love You Boy'z - 我我我我我有胸部
TTITLE13=陳冠希 - 戰爭
TTITLE14=Twins - 天地驕陽
TTITLE15=Boy'z - 去邊道
TTITLE16=鄭希怡 - 花多眼亂
TTITLE17=I Love You Boy'z - 個頭痕唔痕呀？
TTITLE18=梁洛施 - 愛到底
EXTD=
EXTT0=
EXTT1=
EXTT2=
EXTT3=
EXTT4=
EXTT5=
EXTT6=
EXTT7=
EXTT8=
EXTT9=
EXTT10=
EXTT11=
EXTT12=
EXTT13=
EXTT14=
EXTT15=
EXTT16=
EXTT17=
EXTT18=
PLAYORDER=
